<svg width="48" height="48" viewBox="0 0 48 48" fill="none" xmlns="http://www.w3.org/2000/svg">
<mask id="mask0_1_3" style="mask-type:luminance" maskUnits="userSpaceOnUse" x="2" y="5" width="44" height="38">
<path d="M34 41L44 24L34 7H14L4 24L14 41H34Z" fill="white" stroke="white" stroke-width="4" stroke-linejoin="round"/>
<path d="M24 29C25.3261 29 26.5979 28.4732 27.5355 27.5355C28.4732 26.5979 29 25.3261 29 24C29 22.6739 28.4732 21.4021 27.5355 20.4645C26.5979 19.5268 25.3261 19 24 19C22.6739 19 21.4021 19.5268 20.4645 20.4645C19.5268 21.4021 19 22.6739 19 24C19 25.3261 19.5268 26.5979 20.4645 27.5355C21.4021 28.4732 22.6739 29 24 29Z" fill="black" stroke="black" stroke-width="4" stroke-linejoin="round"/>
</mask>
<g mask="url(#mask0_1_3)">
<path d="M0 0H48V48H0V0Z" fill="black"/>
</g>
</svg>
